<?xml version="1.0" encoding="utf-8"?>
<!-- Generator: Adobe Illustrator 21.1.0, SVG Export Plug-In . SVG Version: 6.00 Build 0)  -->
<svg version="1.1" id="Layer_1" xmlns="http://www.w3.org/2000/svg" xmlns:xlink="http://www.w3.org/1999/xlink" x="0px" y="0px"
	 viewBox="0 0 4857.3 881" style="enable-background:new 0 0 4857.3 881;" xml:space="preserve">
<style type="text/css">
	.st0{fill:#5BA57B;}
	.st1{fill:none;}
	.st2{fill:#91CE91;}
	.st3{fill:#FFFFFF;}
	.st4{fill:#2C7571;}
	.st5{fill:#C8EAA7;}
	.st6{fill:#075C60;}
</style>
<title>full-logo</title>
<g>
	<path d="M1085,374.1v-19.9h53.2l3,24.6c4.3-8.1,10.4-15.1,17.8-20.4c7.1-4.9,15.6-7.5,24.2-7.4c2.5,0,5,0.2,7.5,0.5
		c2,0.3,4,0.6,5.9,1.2l-4.1,28.7l-17.6-0.9c-8.2,0-15,1.9-20.6,5.7c-5.7,4-10.2,9.6-12.9,16.1v97.5l25.6,4.4v19.8H1085v-19.8
		l25.6-4.4V378.6L1085,374.1z"/>
	<path d="M1299.7,527.4c-23.6,0-42.5-7.9-56.4-23.6s-21-36.2-21-61.3v-6.9c0-24.2,7.2-44.3,21.6-60.4c14.4-16.1,31.4-24.1,51.1-24.1
		c22.8,0,40.1,6.9,51.9,20.7c11.8,13.8,17.7,32.2,17.7,55.2v19.3h-110.1l-0.5,0.8c0.3,16.3,4.4,29.7,12.4,40.3
		c8,10.5,19.1,15.8,33.4,15.8c10.5,0,19.6-1.5,27.6-4.5c7.5-2.8,14.5-7,20.5-12.3l12.1,20.1c-6.1,5.9-14.1,10.8-24.1,14.8
		S1313.8,527.4,1299.7,527.4z M1295,375.4c-10.4,0-19.2,4.4-26.5,13.1s-11.8,19.7-13.5,32.9l0.3,0.8h78.3v-4.1
		c0-12.1-3.2-22.3-9.7-30.5S1307.8,375.4,1295,375.4z"/>
	<path d="M1399.3,377.1v-22.9h26.5v-21.5c0-18.1,4.7-32.1,14.2-42c9.5-9.9,22.7-14.8,39.6-14.8c3.6,0,7.2,0.3,10.8,0.9
		c3.6,0.6,7.6,1.4,12,2.4l-3.8,23.5c-1.9-0.4-4.2-0.8-6.8-1.1c-2.7-0.3-5.5-0.5-8.2-0.5c-9.1,0-15.9,2.7-20.2,8.1
		s-6.6,13.2-6.6,23.5v21.5h35.5v22.9h-35.5v122.8l25.6,4.4v19.8h-82.1v-19.8l25.6-4.4V377.1H1399.3z"/>
	<path d="M1532.3,299.1v-19.9h56.5v220.7l25.6,4.4v19.8h-82.1v-19.8l25.6-4.4V303.5L1532.3,299.1z"/>
	<path d="M1719.5,527.4c-23.6,0-42.5-7.9-56.4-23.6s-21-36.2-21-61.3v-6.9c0-24.2,7.2-44.3,21.6-60.4c14.4-16.1,31.4-24.1,51.1-24.1
		c22.8,0,40.1,6.9,51.9,20.7c11.8,13.8,17.7,32.2,17.7,55.2v19.3h-110.2l-0.5,0.8c0.3,16.3,4.5,29.7,12.5,40.2
		c8,10.5,19.1,15.8,33.4,15.8c10.5,0,19.6-1.5,27.6-4.5c7.5-2.8,14.5-7,20.5-12.3l12.1,20.1c-6.1,5.9-14.1,10.8-24.1,14.8
		C1745.6,525.3,1733.6,527.3,1719.5,527.4z M1714.8,375.4c-10.4,0-19.2,4.4-26.5,13.1s-11.8,19.7-13.5,32.9l0.3,0.8h78.3v-4.1
		c0-12.1-3.2-22.3-9.7-30.5S1727.6,375.4,1714.8,375.4z"/>
	<path d="M1899.9,503.2c9.9,0.1,19.5-3.2,27.1-9.5c7.8-6.3,11.7-14.1,11.7-23.3h27.8l0.3,0.9c0.5,14.7-6,27.7-19.5,39
		c-13.5,11.3-29.3,17-47.3,17c-24.7,0-43.5-8.1-56.6-24.2c-13.1-16.1-19.6-36.4-19.5-60.8v-6.6c0-24.2,6.5-44.3,19.6-60.5
		s31.9-24.2,56.5-24.2c13.6,0,25.8,2.2,36.7,6.8c10.2,4.1,19.4,10.4,26.9,18.5l1.4,37.7h-24.6l-6.8-26.7c-4.1-3.8-8.9-6.7-14.1-8.6
		c-6.2-2.3-12.8-3.4-19.5-3.3c-16.2,0-27.8,5.8-34.8,17.5c-7,11.7-10.4,26-10.4,42.9v6.6c0,17.4,3.5,31.8,10.4,43.4
		S1883.6,503.1,1899.9,503.2z"/>
	<path d="M2060.4,313.2v41h32.2v22.9h-32.2v103.1c0,8,1.6,13.6,4.9,16.8c3.3,3.2,7.7,4.9,13.1,4.9c3.1,0,6.1-0.3,9.2-0.7
		c3.4-0.5,6.2-1,8.6-1.5l4.2,21.2c-2.9,1.9-7.2,3.4-12.9,4.6c-5.6,1.2-11.3,1.8-17,1.8c-12.6,0-22.6-3.8-30-11.4
		c-7.4-7.6-11.2-19.5-11.1-35.7V377.1h-26.8v-22.9h26.8v-41L2060.4,313.2z"/>
	<path d="M2136.6,504.3l25.6-4.4V378.6l-25.6-4.4v-20h56.6v145.7l25.6,4.4v19.8h-82.1L2136.6,504.3z M2193.1,310.7h-31v-31.6h31
		V310.7z"/>
	<path d="M2246.5,437.6c0-25.1,6.8-45.8,20.4-62.1c13.6-16.3,32.1-24.4,55.4-24.4c23.4,0,42,8.1,55.6,24.3s20.5,36.9,20.5,62.2v3.5
		c0,25.3-6.8,46.1-20.4,62.2c-13.6,16.1-32.1,24.2-55.4,24.2c-23.5,0-42.1-8.1-55.7-24.3c-13.6-16.2-20.4-36.9-20.4-62.1
		L2246.5,437.6z M2277.4,441c0,18,3.8,32.9,11.4,44.6s18.9,17.6,33.8,17.6c14.7,0,25.8-5.9,33.4-17.6c7.6-11.7,11.4-26.6,11.5-44.6
		v-3.5c0-17.8-3.8-32.6-11.5-44.4c-7.6-11.8-18.9-17.7-33.8-17.7c-14.9,0-26.1,5.9-33.6,17.7c-7.5,11.8-11.3,26.6-11.3,44.4V441z"/>
	<path d="M2427.2,504.3l25.6-4.4V378.6l-25.6-4.4v-20h53.2l2.2,25.3c5.3-8.6,12.6-15.9,21.3-21c8.9-5.1,18.9-7.6,29.1-7.5
		c18.3,0,32.5,5.4,42.5,16.1c10,10.7,15.1,27.3,15.1,49.7v83l25.6,4.4V524h-82.1v-19.7l25.6-4.4v-82.4c0-15-3-25.6-8.9-31.9
		c-5.9-6.3-14.9-9.4-27.1-9.4c-8.3-0.2-16.5,2.1-23.6,6.4c-6.9,4.3-12.5,10.4-16.4,17.6v99.7l25.6,4.4V524h-82.1L2427.2,504.3z"/>
	<path d="M2778.2,407.6H2755l-5-20.4c-4.1-3.8-9-6.7-14.2-8.6c-6.2-2.2-12.8-3.3-19.4-3.2c-11,0-19.1,2.4-24.5,7.2
		c-5.1,4.3-8,10.7-8,17.4c0,6.7,2.4,12,7.1,15.9s14.3,7.4,28.7,10.4c21.4,4.6,37.4,10.9,47.9,18.8c10.5,7.9,15.7,18.5,15.7,31.8
		c0,15.1-6.1,27.3-18.3,36.6c-12.2,9.3-28.1,14-47.8,14c-11.7,0.2-23.4-1.3-34.7-4.5c-9.8-2.8-19.1-7.1-27.5-13l-0.2-38.8h23.2
		l5.8,22.8c3.6,3.2,8.4,5.6,14.5,7.1c6.1,1.5,12.4,2.2,18.8,2.2c11,0,19.6-2.2,25.8-6.7s9.3-10.3,9.3-17.5
		c0.1-6.5-2.7-12.7-7.8-16.8c-5.2-4.4-15-8.2-29.4-11.5c-20.6-4.5-36.2-10.6-46.6-18.4c-10.5-7.7-15.7-18.2-15.7-31.4
		c0-13.8,5.9-25.6,17.7-35.3s27.1-14.6,45.9-14.6c12.9,0,24.4,1.7,34.7,5c10.3,3.3,18.8,8,25.6,14L2778.2,407.6z"/>
	<rect x="2923.7" width="39" height="881"/>
	<path d="M3094.1,572.2l25.6-4.4V381.4l-25.6-4.4V357h52.1l2.8,20.7c5.4-7.5,12.4-13.6,20.6-17.7c8.1-4.1,17.5-6.1,28.2-6.1
		c21,0,37.4,8.3,49.1,25c11.7,16.7,17.5,38.7,17.5,66.2v3.3c0,24.5-5.9,44.2-17.6,59.2c-11.7,15-27.9,22.5-48.5,22.5
		c-10.5,0-19.6-1.8-27.6-5.3c-7.9-3.5-14.8-8.9-20.2-15.6v58.6l25.6,4.4v19.9H3094L3094.1,572.2z M3233.3,445.1
		c0-19.3-3.8-35.2-11.3-47.6c-7.5-12.4-18.7-18.5-33.6-18.5c-8.8,0-16.3,2-22.6,6c-6.4,4.1-11.6,9.7-15.2,16.3v82.7
		c3.5,6.7,8.8,12.3,15.1,16.2c6.2,3.8,13.9,5.7,23,5.7c14.7,0,25.8-5.3,33.3-16c7.5-10.7,11.3-24.5,11.3-41.6L3233.3,445.1z"/>
	<path d="M3296.2,377V357h53.2l3,24.6c4.3-8.1,10.4-15.1,17.8-20.4c7.1-4.9,15.6-7.5,24.2-7.4c2.5,0,5,0.2,7.5,0.5
		c2,0.3,4,0.6,5.9,1.2l-4.1,28.7l-17.6-0.9c-8.2,0-15,1.9-20.6,5.7c-5.7,4-10.2,9.6-12.9,16.1v97.5l25.6,4.4v19.8h-82.1v-19.8
		l25.6-4.4V381.4L3296.2,377z"/>
	<path d="M3433.8,440.4c0-25.1,6.8-45.8,20.4-62.1c13.6-16.3,32.1-24.4,55.4-24.4c23.4,0,42,8.1,55.6,24.3s20.5,36.9,20.5,62.2v3.5
		c0,25.3-6.8,46.1-20.4,62.2s-32.1,24.2-55.4,24.2c-23.5,0-42.1-8.1-55.7-24.3c-13.6-16.2-20.4-36.9-20.4-62.1L3433.8,440.4z
		 M3464.7,443.8c0,18,3.8,32.9,11.4,44.6c7.6,11.7,18.9,17.6,33.8,17.6c14.7,0,25.8-5.9,33.4-17.6c7.6-11.7,11.4-26.6,11.5-44.6
		v-3.5c0-17.8-3.8-32.6-11.5-44.4c-7.6-11.8-18.9-17.7-33.8-17.7c-14.9,0-26.1,5.9-33.6,17.7s-11.3,26.6-11.3,44.4L3464.7,443.8z"/>
	<path d="M3669.7,540.9c0,17.5-4.5,30.9-13.5,40.4c-9,9.5-21.5,14.2-37.5,14.2c-3,0-6.1-0.2-9.1-0.7c-2.9-0.5-5.7-1.2-8.5-2.1
		l2-24.3c2.1,0.7,4.3,1.1,6.4,1.3c2.3,0.3,4.6,0.5,6.9,0.5c6.8,0,12.2-2.3,16.2-6.9c4-4.6,6-12.1,6-22.5V381.4l-25.6-4.4V357h56.5
		L3669.7,540.9z M3668.8,312.9h-30.9V282h30.9V312.9z"/>
	<path d="M3793.6,530.2c-23.6,0-42.5-7.9-56.5-23.6c-14-15.7-21-36.2-21-61.3v-6.9c0-24.2,7.2-44.3,21.6-60.4s31.4-24.1,51.1-24.1
		c22.8,0,40.1,6.9,51.9,20.7c11.8,13.8,17.7,32.2,17.7,55.2v19.3h-110.1l-0.5,0.8c0.3,16.3,4.4,29.7,12.4,40.3
		c8,10.5,19.1,15.8,33.4,15.8c10.5,0,19.6-1.5,27.6-4.5c7.5-2.8,14.5-7,20.5-12.3l12.1,20.1c-6.1,5.9-14.1,10.8-24.1,14.8
		C3819.7,528.2,3807.6,530.2,3793.6,530.2z M3788.9,378.2c-10.4,0-19.2,4.4-26.5,13.1s-11.8,19.7-13.5,32.9l0.3,0.8h78.3v-4.1
		c0-12.1-3.2-22.3-9.7-30.5C3811.3,382.3,3801.7,378.2,3788.9,378.2z"/>
	<path d="M3974,506c9.9,0.1,19.5-3.2,27.1-9.5c7.8-6.3,11.7-14.1,11.7-23.3h27.8l0.3,0.9c0.5,14.7-6,27.7-19.5,39
		c-13.5,11.3-29.3,17-47.3,17c-24.7,0-43.5-8.1-56.6-24.2s-19.6-36.4-19.5-60.8v-6.6c0-24.2,6.5-44.3,19.6-60.5s31.9-24.2,56.5-24.2
		c13.6,0,25.8,2.2,36.6,6.8c10.2,4.1,19.4,10.4,26.9,18.5l1.4,37.7h-24.6l-6.8-26.7c-4.1-3.8-8.9-6.7-14.1-8.6
		c-6.2-2.3-12.8-3.4-19.5-3.3c-16.2,0-27.8,5.8-34.8,17.5c-7,11.7-10.4,26-10.4,42.9v6.6c0,17.4,3.5,31.8,10.4,43.4
		S3957.7,506,3974,506z"/>
	<path d="M4134.5,316.1v41h32.2V380h-32.2v103.1c0,8,1.6,13.6,5,16.8c3.3,3.2,7.7,4.9,13.1,4.9c3.1,0,6.1-0.3,9.2-0.7
		c3.4-0.5,6.2-1,8.5-1.5l4.2,21.2c-2.9,1.9-7.2,3.4-12.9,4.6c-5.6,1.2-11.3,1.8-17,1.8c-12.6,0-22.6-3.8-30-11.4
		c-7.4-7.6-11.2-19.5-11.1-35.7V380h-26.8V357h26.8v-41L4134.5,316.1z"/>
	<path d="M4210.7,507.1l25.6-4.4V381.4l-25.6-4.4V357h56.5v145.7l25.6,4.4v19.8h-82.1L4210.7,507.1z M4267.1,313.6h-30.9V282h30.9
		V313.6z"/>
	<path d="M4320.5,440.4c0-25.1,6.8-45.8,20.4-62.1c13.6-16.3,32.1-24.4,55.4-24.4c23.4,0,42,8.1,55.6,24.3s20.5,36.9,20.5,62.2v3.5
		c0,25.3-6.8,46.1-20.4,62.2c-13.6,16.1-32.1,24.2-55.4,24.2c-23.5,0-42.1-8.1-55.7-24.3c-13.6-16.2-20.4-36.9-20.4-62.1
		L4320.5,440.4z M4351.5,443.8c0,18,3.8,32.9,11.4,44.6c7.6,11.7,18.9,17.6,33.8,17.6c14.7,0,25.8-5.9,33.4-17.6
		s11.4-26.6,11.5-44.6v-3.5c0-17.8-3.8-32.6-11.5-44.4s-18.9-17.7-33.8-17.7s-26.1,5.9-33.6,17.7s-11.3,26.6-11.3,44.4L4351.5,443.8
		z"/>
	<path d="M4501.3,507.1l25.6-4.4V381.4l-25.6-4.4V357h53.2l2.2,25.3c5.3-8.6,12.6-15.9,21.3-21c8.9-5.1,18.9-7.6,29.1-7.5
		c18.3,0,32.5,5.4,42.5,16.1c10,10.7,15.1,27.3,15.1,49.7v83l25.6,4.4v19.8h-82.1v-19.7l25.6-4.4v-82.4c0-15-3-25.6-8.9-31.9
		c-5.9-6.3-14.9-9.4-27.1-9.4c-8.3-0.2-16.5,2.1-23.6,6.4c-6.9,4.3-12.5,10.4-16.4,17.6v99.7l25.6,4.4v19.8h-82.1L4501.3,507.1z"/>
	<path d="M4852.3,410.4h-23.2l-5-20.4c-4.1-3.8-8.9-6.7-14.2-8.5c-6.2-2.2-12.8-3.3-19.4-3.2c-11,0-19.1,2.4-24.5,7.2
		c-5.1,4.3-8,10.7-8,17.4c0,6.7,2.4,11.9,7.1,15.9c4.7,3.9,14.3,7.4,28.7,10.4c21.5,4.6,37.4,10.9,47.9,18.8
		c10.5,7.9,15.7,18.5,15.7,31.7c0,15.1-6.1,27.3-18.3,36.6s-28.1,14-47.8,14c-11.7,0.2-23.4-1.3-34.7-4.5c-9.8-2.8-19.1-7.1-27.5-13
		l-0.2-38.8h23.2l5.8,22.8c3.6,3.2,8.4,5.6,14.5,7.1c6.1,1.5,12.4,2.2,18.8,2.2c11,0,19.6-2.2,25.8-6.7s9.3-10.3,9.3-17.5
		c0.1-6.5-2.7-12.7-7.8-16.8c-5.2-4.4-15-8.2-29.5-11.4c-20.6-4.5-36.2-10.6-46.6-18.4s-15.7-18.2-15.7-31.4
		c0-13.8,5.9-25.6,17.7-35.3s27.1-14.6,45.9-14.6c12.9,0,24.4,1.7,34.7,5c10.3,3.3,18.8,8,25.6,14L4852.3,410.4z"/>
</g>
<g>
	<g>
		<path class="st0" d="M214.3,438.9c11.4-25.3,32.1-43.5,56.1-52.4C232,349,207.6,297.3,205.8,240c-48,1.9-95.4,21.2-132,57.8
			c-21.2,21.2-36.6,46.1-46.2,72.6c-13.6,46.9,9,97.8,54.8,118.4C132.6,511.4,191.6,489.1,214.3,438.9z"/>
		<path class="st1" d="M404.7,476.9c0-0.1,0-0.3,0-0.4C404.6,476.6,404.6,476.7,404.7,476.9z"/>
		<path class="st1" d="M404.2,489.5c0-0.2,0-0.3,0.1-0.5C404.3,489.2,404.3,489.4,404.2,489.5z"/>
		<path class="st2" d="M403.5,495.1c-1.3,8.6-3.8,17.3-7.6,25.6c-21,46.5-59.7,85.1-111.2,104.5c-102.9,38.9-218-12.9-256.9-115.9
			C8.4,458,11.6,403.5,32.6,357.1C10,407.2,32.3,466.1,82.5,488.7c50.2,22.6,109.2,0.3,131.8-49.9c11.4-25.3,32.1-43.5,56.1-52.4
			c33.9,33.1,78.7,55.1,128.5,60l0,0l0,0c4.2,0.4,8.5,0.7,12.9,0.8c-0.8,16.3-3.5,32.5-8.3,48.2
			C403.5,495.4,403.5,495.2,403.5,495.1z"/>
		<path class="st3" d="M419.9,447.5c-3.7,0-7.3-0.1-10.9-0.3c-4.4,103.7-90,186.7-194.8,186.7c-107.5,0-195-87.5-195-195
			c0-104.7,83-190.4,186.7-194.8c-0.2-3.6-0.3-7.3-0.3-10.9c0-2.8,0.1-5.6,0.2-8.4C91.6,229.3,0,323.6,0,438.9
			C0,557,96.1,653.1,214.3,653.1c115.3,0,209.6-91.6,214-205.9C425.5,447.4,422.7,447.5,419.9,447.5z"/>
		<path class="st4" d="M417.2,236.1c25.3,11.4,43.5,32.1,52.4,56.1c37.5-38.4,89.2-62.8,146.5-64.6c-1.9-48-21.2-95.4-57.8-132
			c-21.2-21.2-46.1-36.6-72.6-46.2c-46.9-13.6-97.8,9-118.4,54.8C344.8,154.5,367.1,213.5,417.2,236.1z"/>
		<path class="st1" d="M379.3,426.5c0.1,0,0.3,0,0.4,0C379.5,426.5,379.4,426.5,379.3,426.5z"/>
		<path class="st1" d="M366.6,426.1c0.2,0,0.3,0,0.5,0.1C366.9,426.1,366.8,426.1,366.6,426.1z"/>
		<path class="st0" d="M361,425.4c-8.6-1.3-17.3-3.8-25.6-7.6c-46.5-21-85.1-59.7-104.5-111.2c-38.9-102.9,12.9-218,115.9-256.9
			c51.4-19.5,105.9-16.2,152.3,4.7c-50.1-22.6-109.1-0.2-131.7,49.9c-22.6,50.2-0.3,109.2,49.9,131.8c25.3,11.4,43.5,32.1,52.4,56.1
			c-33.1,33.9-55.1,78.7-60,128.5l0,0l0,0c-0.4,4.2-0.7,8.5-0.8,12.9c-16.3-0.8-32.5-3.5-48.2-8.3
			C360.8,425.4,360.9,425.4,361,425.4z"/>
		<path class="st3" d="M408.7,441.8c0-3.7,0.1-7.3,0.3-10.9c-103.7-4.4-186.7-90-186.7-194.8c0-107.5,87.5-195,195-195
			C522,41.1,607.6,124.4,612,228c3.6-0.2,7.3-0.3,10.9-0.3c2.8,0,5.6,0.1,8.4,0.2c-4.4-114.3-98.7-206.1-214-206.1
			C299.1,21.9,203,118,203,236.1c0,115.3,91.6,209.6,205.9,214C408.8,447.4,408.7,444.6,408.7,441.8z"/>
		<path class="st2" d="M419.7,644.9c-25.3-11.4-43.5-32.1-52.4-56.1c-37.5,38.4-89.1,62.5-146.5,64.3c1.9,48,21.2,95.6,57.8,132.2
			c21.2,21.2,46.1,36.6,72.6,46.2c46.9,13.6,97.8-9,118.4-54.8C492.2,726.5,469.9,667.5,419.7,644.9z"/>
		<path class="st1" d="M457.7,454.5c-0.1,0-0.3,0-0.4,0C457.5,454.5,457.6,454.5,457.7,454.5z"/>
		<path class="st1" d="M470.4,454.9c-0.2,0-0.3,0-0.5-0.1C470.1,454.9,470.2,454.9,470.4,454.9z"/>
		<path class="st5" d="M475.9,455.6c8.6,1.3,17.3,3.8,25.6,7.6c46.5,21,85.1,59.7,104.5,111.2c38.9,102.9-12.9,218-115.9,256.9
			c-51.4,19.5-105.9,16.2-152.3-4.7c50.1,22.6,109.1,0.2,131.7-49.9c22.6-50.2,0.3-109.2-49.9-131.8c-25.3-11.4-43.5-32.1-52.4-56.1
			c33.1-33.9,55.1-78.7,60-128.5l0,0l0,0c0.4-4.2,0.7-8.5,0.8-12.9c16.3,0.8,32.5,3.5,48.2,8.3C476.2,455.6,476.1,455.6,475.9,455.6
			z"/>
		<path class="st3" d="M428.1,450c-2.5,0.6-5.8,1.2-9.7,1.2c-3.8,0-7-0.6-9.5-1.2c-0.7-2.5-1.3-5.9-1.3-10.1c0-3.7,0.6-6.8,1.3-9.1
			c2.1-0.7,5.4-1.6,9.6-1.6c4.1,0,7.4,0.9,9.6,1.6c0.8,2,1.7,5.1,1.8,9C430,444.4,428.9,447.9,428.1,450z"/>
		<path class="st6" d="M622.7,442c-11.4,25.3-32.1,43.5-56.1,52.4c38.4,37.5,62.8,89.2,64.6,146.5c48-1.9,95.4-21.2,132-57.8
			c21.2-21.2,36.6-46.1,46.2-72.6c13.6-46.9-9-97.8-54.8-118.4C704.3,369.5,645.3,391.8,622.7,442z"/>
		<path class="st1" d="M432.3,404c0,0.1,0,0.3,0,0.4C432.3,404.3,432.3,404.1,432.3,404z"/>
		<path class="st1" d="M432.7,391.3c0,0.2,0,0.3-0.1,0.5C432.7,391.6,432.7,391.5,432.7,391.3z"/>
		<path class="st4" d="M433.4,385.8c1.3-8.6,3.8-17.3,7.6-25.6c21-46.5,59.7-85.1,111.2-104.5c102.9-38.9,218,12.9,256.9,115.9
			c19.5,51.4,16.2,105.9-4.7,152.3c22.5-50.1,0.2-109.1-49.9-131.7c-50.2-22.6-109.2-0.3-131.8,49.9c-11.4,25.3-32.1,43.5-56.1,52.4
			c-33.9-33.1-78.7-55.1-128.5-60l0,0l0,0c-3.3-0.3-6.7-0.6-10.1-0.7c-0.9,0,0.1-1.7-0.8-1.7c0.1-1.1-1.8-0.6-1.7-1.7
			c1-15.2,3.7-30.3,8.1-44.9C433.4,385.5,433.4,385.6,433.4,385.8z"/>
		<path class="st3" d="M417,433.4c3.7,0,7.3,0.1,10.9,0.3C432.3,330,518,247,622.7,247c107.5,0,195,87.5,195,195
			c0,104.7-83,190.4-186.7,194.8c0.2,3.6,0.3,7.3,0.3,10.9c0,2.8-0.1,5.6-0.2,8.4c114.3-4.4,205.9-98.7,205.9-214
			c0-118.1-96.1-214.3-214.3-214.3c-115.3,0-209.6,91.6-214,205.9C411.4,433.5,414.2,433.4,417,433.4z"/>
		<path class="st3" d="M428.3,439.2c0,3.7-0.1,7.3-0.3,10.9c103.7,4.4,186.7,90,186.7,194.8c0,107.5-87.5,195-195,195
			c-104.7,0-190.4-83.4-194.8-187.1c-3.6,0.2-7.1,0.3-10.7,0.3c-2.8,0-5.8-0.2-8.6-0.3c4.4,114.3,98.7,206.3,214,206.3
			C537.9,859.1,634,763,634,644.9c0-115.3-91.6-209.6-205.9-214C428.2,433.6,428.3,436.4,428.3,439.2z"/>
	</g>
	<path class="st1" d="M405.4,478.6c0-0.1,0-0.3,0-0.4C405.4,478.4,405.4,478.5,405.4,478.6z"/>
	<path class="st1" d="M405,492c0-0.2,0-0.3,0-0.5C405,491.6,405,491.8,405,492z"/>
	<path class="st1" d="M378.8,425.9h0.4H378.8z"/>
	<path class="st1" d="M365.5,425.4l0.5,0L365.5,425.4z"/>
	<path class="st1" d="M461,455.2h-0.4H461z"/>
	<path class="st1" d="M474.3,455.6l-0.5,0L474.3,455.6z"/>
	<path class="st3" d="M430,450.5c-6.6,1.6-13.5,1.6-20.1,0c-1.8-6.6-1.8-13.5,0-20.1c6.5-2.3,13.6-2.3,20.1,0
		C432.5,436.9,432.5,444.1,430,450.5z"/>
	<path class="st1" d="M434.4,402.3c0,0.1,0,0.3,0,0.4C434.4,402.6,434.4,402.4,434.4,402.3z"/>
	<path class="st1" d="M434.8,389c0,0.2,0,0.3,0,0.5C434.8,389.3,434.8,389.2,434.8,389z"/>
</g>
</svg>
