<?xml version="1.0" encoding="utf-8"?>
<!-- Generator: Adobe Illustrator 21.1.0, SVG Export Plug-In . SVG Version: 6.00 Build 0)  -->
<svg version="1.1" id="Layer_1" xmlns="http://www.w3.org/2000/svg" xmlns:xlink="http://www.w3.org/1999/xlink" x="0px" y="0px"
	 viewBox="0 0 452.4 458.2" style="enable-background:new 0 0 452.4 458.2;" xml:space="preserve">
<style type="text/css">
	.st0{fill:#5BA57B;}
	.st1{fill:none;}
	.st2{fill:#91CE91;}
	.st3{fill:#FFFFFF;}
	.st4{fill:#2C7571;}
	.st5{fill:#C8EAA7;}
	.st6{fill:#075C60;}
</style>
<g>
	<path class="st0" d="M119,228.3c6-13.3,16.8-22.8,29.5-27.5c-20.2-19.7-32.9-46.8-33.9-76.9c-25.2,1-50.1,11.1-69.3,30.4
		c-11.1,11.1-19.2,24.2-24.2,38.1c-7.1,24.6,4.7,51.3,28.7,62.1C76.2,266.3,107.1,254.6,119,228.3z"/>
	<path class="st1" d="M218.9,248.2c0-0.1,0-0.1,0-0.2C218.9,248.1,218.9,248.1,218.9,248.2z"/>
	<path class="st1" d="M218.7,254.9c0-0.1,0-0.2,0-0.3C218.7,254.7,218.7,254.8,218.7,254.9z"/>
	<path class="st2" d="M218.4,257.8c-0.7,4.5-2,9.1-4,13.5c-11,24.4-31.3,44.7-58.4,54.9c-54,20.4-114.4-6.8-134.8-60.8
		c-10.2-27-8.5-55.6,2.5-80c-11.8,26.3-0.1,57.3,26.2,69.1c26.3,11.9,57.3,0.2,69.2-26.2c6-13.3,16.8-22.8,29.5-27.5
		c17.8,17.4,41.3,28.9,67.5,31.5l0,0l0,0c2.2,0.2,4.5,0.4,6.7,0.4c-0.4,8.5-1.8,17.1-4.3,25.3C218.3,257.9,218.3,257.8,218.4,257.8z
		"/>
	<path class="st3" d="M227,232.8c-1.9,0-3.8,0-5.7-0.1c-2.3,54.4-47.3,98-102.2,98c-56.4,0-102.3-45.9-102.3-102.3
		c0-55,43.6-99.9,98-102.2c-0.1-1.9-0.1-3.8-0.1-5.7c0-1.5,0.1-2.9,0.1-4.4c-60,2.3-108.1,51.8-108.1,112.4
		c0,62,50.5,112.5,112.5,112.5c60.5,0,110-48.1,112.4-108.1C229.9,232.7,228.4,232.8,227,232.8z"/>
	<path class="st4" d="M225.6,121.9c13.3,6,22.8,16.8,27.5,29.5c19.7-20.2,46.8-32.9,76.9-33.9c-1-25.2-11.1-50.1-30.4-69.3
		c-11.1-11.1-24.2-19.2-38.1-24.2c-24.6-7.1-51.3,4.7-62.1,28.7C187.5,79,199.2,110,225.6,121.9z"/>
	<path class="st1" d="M205.6,221.8c0.1,0,0.1,0,0.2,0C205.8,221.8,205.7,221.8,205.6,221.8z"/>
	<path class="st1" d="M199,221.6c0.1,0,0.2,0,0.3,0C199.1,221.6,199.1,221.6,199,221.6z"/>
	<path class="st0" d="M196.1,221.2c-4.5-0.7-9.1-2-13.5-4c-24.4-11-44.7-31.3-54.9-58.4c-20.4-54,6.8-114.4,60.8-134.8
		c27-10.2,55.6-8.5,80,2.5c-26.3-11.8-57.3-0.1-69.1,26.2c-11.9,26.3-0.2,57.3,26.2,69.2c13.3,6,22.8,16.8,27.5,29.5
		c-17.4,17.8-28.9,41.3-31.5,67.5l0,0l0,0c-0.2,2.2-0.4,4.5-0.4,6.7c-8.5-0.4-17.1-1.8-25.3-4.3C195.9,221.2,196,221.2,196.1,221.2z
		"/>
	<path class="st3" d="M221.1,229.8c0-1.9,0-3.8,0.1-5.7c-54.4-2.3-98-47.3-98-102.2c0-56.4,45.9-102.3,102.3-102.3
		c55,0,99.9,43.7,102.2,98.1c1.9-0.1,3.8-0.1,5.7-0.1c1.5,0,2.9,0.1,4.4,0.1c-2.3-60-51.8-108.2-112.4-108.2
		c-62,0-112.5,50.5-112.5,112.5c0,60.5,48.1,110,108.1,112.4C221.1,232.7,221.1,231.3,221.1,229.8z"/>
	<path class="st2" d="M226.9,336.4c-13.3-6-22.8-16.8-27.5-29.5c-19.7,20.2-46.8,32.8-76.9,33.8c1,25.2,11.1,50.2,30.3,69.4
		c11.1,11.1,24.2,19.2,38.1,24.2c24.6,7.1,51.3-4.7,62.1-28.7C264.9,379.3,253.2,348.3,226.9,336.4z"/>
	<path class="st1" d="M246.8,236.5c-0.1,0-0.1,0-0.2,0C246.7,236.5,246.7,236.5,246.8,236.5z"/>
	<path class="st1" d="M253.5,236.7c-0.1,0-0.2,0-0.3,0C253.3,236.7,253.4,236.7,253.5,236.7z"/>
	<path class="st5" d="M256.4,237.1c4.5,0.7,9.1,2,13.5,4c24.4,11,44.7,31.3,54.9,58.4c20.4,54-6.8,114.4-60.8,134.8
		c-27,10.2-55.6,8.5-80-2.5c26.3,11.8,57.3,0.1,69.1-26.2c11.9-26.3,0.2-57.3-26.2-69.2c-13.3-6-22.8-16.8-27.5-29.5
		c17.4-17.8,28.9-41.3,31.5-67.5l0,0l0,0c0.2-2.2,0.4-4.5,0.4-6.7c8.5,0.4,17.1,1.8,25.3,4.3C256.5,237.1,256.4,237.1,256.4,237.1z"
		/>
	<path class="st3" d="M231.3,234.1c-1.3,0.3-3,0.6-5.1,0.6c-2,0-3.7-0.3-5-0.6c-0.4-1.3-0.7-3.1-0.7-5.3c0-1.9,0.3-3.6,0.7-4.8
		c1.1-0.4,2.9-0.9,5-0.9c2.2,0,3.9,0.5,5,0.9c0.4,1,0.9,2.7,0.9,4.7C232.3,231.1,231.7,233,231.3,234.1z"/>
	<path class="st6" d="M333.4,229.9c-6,13.3-16.8,22.8-29.5,27.5c20.2,19.7,32.9,46.8,33.9,76.9c25.2-1,50.1-11.1,69.3-30.4
		c11.1-11.1,19.2-24.2,24.2-38.1c7.1-24.6-4.7-51.3-28.7-62.1C376.2,191.8,345.3,203.6,333.4,229.9z"/>
	<path class="st1" d="M233.4,210c0,0.1,0,0.1,0,0.2C233.5,210.1,233.4,210,233.4,210z"/>
	<path class="st1" d="M233.7,203.3c0,0.1,0,0.2,0,0.3C233.6,203.5,233.7,203.4,233.7,203.3z"/>
	<path class="st4" d="M234,200.4c0.7-4.5,2-9.1,4-13.5c11-24.4,31.3-44.7,58.4-54.9c54-20.4,114.4,6.8,134.8,60.8
		c10.2,27,8.5,55.6-2.5,80c11.8-26.3,0.1-57.3-26.2-69.1c-26.3-11.9-57.3-0.2-69.2,26.2c-6,13.3-16.8,22.8-29.5,27.5
		c-17.8-17.4-41.3-28.9-67.5-31.5l0,0l0,0c-1.8-0.2-3.5-0.3-5.3-0.4c-0.5,0,0-0.9-0.4-0.9c0-0.6-0.9-0.3-0.9-0.9
		c0.5-8,1.9-15.9,4.2-23.6C234,200.3,234,200.3,234,200.4z"/>
	<path class="st3" d="M225.4,225.4c1.9,0,3.8,0.1,5.7,0.2c2.3-54.4,47.3-98,102.2-98c56.4,0,102.3,45.9,102.3,102.3
		c0,55-43.6,99.9-98,102.2c0.1,1.9,0.1,3.8,0.1,5.7c0,1.5-0.1,2.9-0.1,4.4c60-2.3,108.1-51.8,108.1-112.4
		c0-62-50.5-112.5-112.5-112.5c-60.5,0-110,48.1-112.4,108.1C222.5,225.4,224,225.4,225.4,225.4z"/>
	<path class="st3" d="M231.4,228.4c0,1.9,0,3.8-0.1,5.7c54.4,2.3,98,47.3,98,102.2c0,56.4-45.9,102.3-102.3,102.3
		c-55,0-99.9-43.8-102.2-98.2c-1.9,0.1-3.7,0.2-5.6,0.2c-1.5,0-3-0.1-4.5-0.1c2.3,60,51.8,108.3,112.4,108.3
		c62,0,112.5-50.5,112.5-112.5c0-60.5-48.1-110-108.1-112.4C231.3,225.5,231.4,227,231.4,228.4z"/>
</g>
<title>RP 2017 logo</title>
</svg>
