<?xml version="1.0" encoding="utf-8"?>
<!-- Generator: Adobe Illustrator 16.0.4, SVG Export Plug-In . SVG Version: 6.00 Build 0)  -->
<!DOCTYPE svg PUBLIC "-//W3C//DTD SVG 1.1//EN" "http://www.w3.org/Graphics/SVG/1.1/DTD/svg11.dtd" [
	<!ENTITY st0 "fill:#89D329;">
	<!ENTITY st1 "fill:#FFFFFF;">
	<!ENTITY st2 "fill:#00BCFF;">
]>
<svg version="1.1" id="Bayer_Cross" xmlns="http://www.w3.org/2000/svg" xmlns:xlink="http://www.w3.org/1999/xlink" x="0px"
	 y="0px" width="289.1337891px" height="289.1337891px" viewBox="0 0 289.1337891 289.1337891"
	 style="enable-background:new 0 0 289.1337891 289.1337891;" xml:space="preserve">
<g>
	<g>
		<path style="&st1;" d="M136.1831055,44.9116211h16.3325195c1.8017578,0,3.2705078-1.4643555,3.2705078-3.269043
			c0-1.7978516-1.46875-3.2675781-3.2705078-3.2675781h-16.3325195V44.9116211z M136.1831055,60.7817383h16.815918
			c2.0576172,0,3.7226562-1.671875,3.7226562-3.7392578c0-2.0610352-1.6640625-3.7324219-3.7216797-3.7324219h-16.8168945
			V60.7817383z M162.4462891,48.7558594c2.21875,2.1616211,3.5966797,5.1821289,3.5966797,8.5268555
			c0,6.5620117-5.3222656,11.8945312-11.8857422,11.9042969h-27.3120117V29.9692383l26.862793,0.0019531
			c6.3046875,0.0097656,11.4111328,5.1289062,11.4111328,11.4360352
			C165.1191406,44.2041016,164.1123047,46.7675781,162.4462891,48.7558594z"/>
		<path style="&st1;" d="M168.7275391,115.8867188h-10.0234375l-3.15625-6.5361328h-21.9399414l-3.1601562,6.5361328h-10.0185547
			l19.6015625-39.203125h9.0893555L168.7275391,115.8867188z M144.5776367,86.7138672l-6.8857422,14.2412109h13.7709961
			L144.5776367,86.7138672z"/>
		<polygon style="&st1;" points="157.8955078,124.2910156 169.1289062,124.2910156 149.2480469,149.8173828 
			149.2480469,163.4970703 139.9086914,163.4970703 139.9086914,149.8173828 120.0297852,124.2910156 131.2612305,124.2910156 
			144.5805664,142.1435547 		"/>
		<polygon style="&st1;" points="209.8759766,124.2910156 209.8759766,132.6943359 183.7392578,132.6943359 
			183.7392578,139.2294922 208.9414062,139.2255859 208.9414062,147.6240234 183.7392578,147.6240234 183.7392578,155.0947266 
			209.8759766,155.0947266 209.8759766,163.4970703 174.4033203,163.4970703 174.4033203,124.2910156 		"/>
		<path style="&st1;" d="M238.7138672,148.5615234h-7.0029297v14.9355469h-9.3349609v-39.2060547h23.84375
			c6.6855469,0.0224609,12.1025391,5.4521484,12.1025391,12.1474609c0,5.5253906-3.6552734,10.1816406-8.7119141,11.6484375
			l11.5068359,15.4101562h-11.2041016L238.7138672,148.5615234z M245.2695312,132.6943359h-13.5585938v7.4667969h13.5585938
			c2.0517578-0.0126953,3.7089844-1.6826172,3.7089844-3.7314453
			C248.9785156,134.375,247.3212891,132.7060547,245.2695312,132.6943359z"/>
		<path style="&st1;" d="M124.3862305,163.4970703h-10.0219727l-3.1547852-6.5351562H89.2705078l-3.1601562,6.5351562H76.0917969
			l19.6015625-39.2060547h9.0883789L124.3862305,163.4970703z M100.2392578,134.3203125l-6.8881836,14.2412109h13.7709961
			L100.2392578,134.3203125z"/>
		<path style="&st1;" d="M41.0341797,139.2529297h16.3291016c1.8041992,0,3.2714844-1.4648438,3.2714844-3.2675781
			c0-1.7998047-1.4672852-3.2675781-3.2714844-3.2675781l-16.3291016-0.0009766V139.2529297z M41.0341797,155.1240234h16.8110352
			c2.0615234,0,3.7241211-1.6738281,3.7241211-3.7402344c0-2.0605469-1.6601562-3.734375-3.7216797-3.734375H41.0341797V155.1240234
			z M67.2924805,143.0966797c2.2207031,2.1621094,3.5976562,5.1835938,3.5976562,8.5273438
			c0,6.5644531-5.3212891,11.8964844-11.8828125,11.9082031H31.6967773V124.3125h26.8613281
			c6.3051758,0.0126953,11.4116211,5.1289062,11.4116211,11.4355469
			C69.9697266,138.546875,68.9614258,141.109375,67.2924805,143.0966797z"/>
		<polygon style="&st1;" points="162.3193359,171.8974609 162.3193359,180.3017578 136.1782227,180.3017578 
			136.1782227,186.8369141 161.3828125,186.8330078 161.3828125,195.2314453 136.1782227,195.2314453 136.1782227,202.7021484 
			162.3193359,202.7021484 162.3193359,211.1005859 126.8452148,211.1005859 126.8452148,171.8974609 		"/>
		<path style="&st1;" d="M155.765625,232.5830078c0-2.0566406-1.6533203-3.71875-3.7001953-3.7382812h-15.887207v7.4628906
			h15.887207C154.1142578,236.2880859,155.765625,234.6220703,155.765625,232.5830078z M126.8442383,259.6435547v-39.2050781
			h26.1879883c6.671875,0.0449219,12.0625,5.4667969,12.0625,12.1523438c0,5.0839844-3.1191406,9.4414062-7.5498047,11.2558594
			l11.7763672,15.796875h-11.2060547l-11.2041016-14.9316406h-10.7329102v14.9316406H126.8442383z"/>
	</g>
	<path style="&st0;" d="M286.0507812,135.7553711C281.5146484,61.5698242,219.9238281,2.8037109,144.5966797,2.8037109
		c-75.3261719,0-136.9169922,58.7661133-141.453125,132.9516602c0.1821289,2.9750977,0.4492188,5.9272461,0.8120117,8.8491211
		c3.0610352,24.6757812,12.4682617,47.3808594,26.5332031,66.4394531
		c25.8100586,34.9746094,67.3066406,57.6640625,114.1079102,57.6640625
		c-65.5161133,0-119.3369141-51.0058594-123.8569336-115.390625c-0.203125-2.9023438-0.3139648-5.828125-0.3139648-8.7817383
		c0-2.9521484,0.1108398-5.8789062,0.3139648-8.7802734c4.5200195-64.3857422,58.3408203-115.390625,123.8569336-115.390625
		c46.8115234,0,88.3134766,22.6987305,114.1201172,57.6870117c14.0791016,19.0888672,23.4785156,41.8359375,26.5214844,66.5527344
		c0.3554688,2.8789062,0.6328125,5.78125,0.8125,8.7128906c0.1777344-2.90625,0.2792969-5.8320312,0.2792969-8.7817383
		C286.3300781,141.5864258,286.2285156,138.6606445,286.0507812,135.7553711"/>
	<path style="&st2;" d="M3.1445312,153.3173828c4.5361328,74.1855469,66.1269531,132.9511719,141.4541016,132.9511719
		c75.3261719,0,136.9169922-58.765625,141.453125-132.9511719c-0.1826172-2.9746094-0.4492188-5.9277344-0.8125-8.8491211
		c-3.0605469-24.6762695-12.4677734-47.3813477-26.5332031-66.4399414
		c-25.8095703-34.9746094-67.3066406-57.6630859-114.1074219-57.6630859c65.515625,0,119.3369141,51.0048828,123.8574219,115.390625
		c0.203125,2.9023438,0.3134766,5.828125,0.3134766,8.78125c0,2.9521484-0.1113281,5.8779297-0.3144531,8.7802734
		c-4.5195312,64.3867188-58.3408203,115.390625-123.8564453,115.390625c-46.8115234,0-88.3134766-22.6992188-114.1201172-57.6875
		C16.3994141,191.9326172,7,169.1845703,3.9570312,144.4682617c-0.3554688-2.8793945-0.6328125-5.7817383-0.8125-8.7124023
		c-0.1777344,2.9052734-0.2792969,5.8310547-0.2792969,8.78125C2.8652344,147.4853516,2.9667969,150.4111328,3.1445312,153.3173828"
		/>
</g>
</svg>
